<?xml version="1.0" encoding="UTF-8"?>
<svg version="1.1" xmlns="http://www.w3.org/2000/svg" width="4958" height="970">
<path d="M0 0 C67.32 0 134.64 0 204 0 C204 120.45 204 240.9 204 365 C325.44 365 446.88 365 572 365 C572 244.55 572 124.1 572 0 C640.31 0 708.62 0 779 0 C779 309.87 779 619.74 779 939 C711.02 939 643.04 939 573 939 C573 806.34 573 673.68 573 537 C451.89 537 330.78 537 206 537 C206 669.66 206 802.32 206 939 C138.02 939 70.04 939 0 939 C0 629.13 0 319.26 0 0 Z " fill="#000000" transform="translate(992,13)"/>
<path d="M0 0 C1.22888097 -0.00424107 1.22888097 -0.00424107 2.48258781 -0.00856781 C6.83938777 -0.02344459 11.19615575 -0.03274005 15.55297852 -0.03710938 C19.05731925 -0.04144176 22.56140649 -0.05514403 26.06567383 -0.078125 C45.17260497 -0.20070982 64.15149945 0.0727312 83.20703125 1.578125 C83.98849077 1.63980614 84.76995029 1.70148727 85.57509041 1.76503754 C148.07155604 6.81676747 209.95706377 20.21374126 269.24609375 40.515625 C269.97339691 40.76438385 270.70070007 41.0131427 271.45004272 41.2694397 C301.50692789 51.59979328 301.50692789 51.59979328 305.30859375 59.203125 C307.11684271 70.36498659 302.45288507 79.26948273 297.99609375 89.140625 C297.22265392 90.89842221 296.45171509 92.65732171 295.68310547 94.41723633 C294.0612847 98.12747262 292.43018883 101.83342884 290.79345703 105.53710938 C287.13396001 113.84766757 283.62476837 122.22144267 280.10897827 130.59353638 C278.13434029 135.2926262 276.15043251 139.98780157 274.16796875 144.68359375 C273.36516148 146.58639503 272.56242755 148.48922725 271.75976562 150.39208984 C271.35814209 151.34420349 270.95651855 152.29631714 270.54272461 153.27728271 C269.70953826 155.25257717 268.87636808 157.22787844 268.04321289 159.20318604 C265.49698568 165.23996961 262.95030246 171.2765604 260.40301514 177.31289673 C259.23125778 180.09015344 258.06018748 182.86769909 256.88916016 185.64526367 C251.74044167 197.85053313 246.53955267 210.03288224 241.30859375 222.203125 C240.69672714 221.9328801 240.08486053 221.66263519 239.45445251 221.38420105 C172.09737457 191.65955263 104.38823617 170.97604731 30.24609375 170.765625 C28.53660049 170.75609299 28.53660049 170.75609299 26.79257202 170.74636841 C-45.12918956 170.49662881 -113.44849811 192.95867047 -165.69140625 243.203125 C-166.1827002 243.67250488 -166.67399414 244.14188477 -167.18017578 244.62548828 C-173.90654987 251.08054644 -179.97876715 257.8407964 -185.69140625 265.203125 C-186.1409668 265.77627441 -186.59052734 266.34942383 -187.05371094 266.93994141 C-195.36023233 277.56632744 -202.74478614 288.64627831 -209.69140625 300.203125 C-210.34471924 301.28086182 -210.34471924 301.28086182 -211.01123047 302.38037109 C-238.54257211 348.24477068 -248.9056522 402.60122975 -253.69140625 455.203125 C-253.78711914 456.18684082 -253.88283203 457.17055664 -253.98144531 458.18408203 C-256.71082046 490.07081424 -256.18313662 523.50676351 -251.69140625 555.203125 C-251.59430359 555.89805054 -251.49720093 556.59297607 -251.39715576 557.30895996 C-245.49438227 599.3084282 -235.20429266 641.8480556 -216.69140625 680.203125 C-216.30275391 681.00943359 -215.91410156 681.81574219 -215.51367188 682.64648438 C-206.03387605 702.01824105 -193.58989967 721.44325047 -177.69140625 736.203125 C-172.69140625 741.203125 -172.69140625 741.203125 -171.0625 742.9375 C-138.62966032 776.7922387 -89.76343587 792.78417411 -43.90551758 794.33081055 C-39.66678178 794.41211723 -35.43081652 794.44833527 -31.19140625 794.453125 C-30.39026398 794.45479675 -29.5891217 794.45646851 -28.76370239 794.45819092 C-5.05582251 794.46104946 18.62214866 793.05323321 42.28878784 791.78295898 C49.98542722 791.37086265 57.68238497 790.99730702 65.3828125 790.6640625 C67.9790423 790.54683278 70.57521279 790.42839142 73.1713562 790.30926514 C74.73443174 790.23976847 76.29768935 790.17422691 77.8611145 790.11309814 C91.93917839 789.7703907 91.93917839 789.7703907 104.30859375 783.828125 C109.11318058 777.52210479 109.43448816 770.67846163 109.42884827 762.95181274 C109.43013229 761.89310974 109.43013229 761.89310974 109.43144226 760.8130188 C109.43309055 758.45295648 109.42758508 756.09296594 109.42211914 753.73291016 C109.42181266 752.01006256 109.42194654 750.28721484 109.4224844 748.56436729 C109.42270986 743.95687683 109.41692019 739.34941242 109.40987396 734.7419281 C109.40417281 730.41608601 109.4039105 726.09025021 109.40319824 721.7644043 C109.397954 709.11897442 109.38399282 696.47354938 109.37109375 683.828125 C109.35046875 655.571875 109.32984375 627.315625 109.30859375 598.203125 C50.89859375 598.203125 -7.51140625 598.203125 -67.69140625 598.203125 C-67.69140625 539.793125 -67.69140625 481.383125 -67.69140625 421.203125 C56.38859375 421.203125 180.46859375 421.203125 308.30859375 421.203125 C308.30859375 584.553125 308.30859375 747.903125 308.30859375 916.203125 C221.57113422 944.33419295 134.32697539 962.25368819 43.30859375 968.203125 C42.523172 968.25533203 41.73775024 968.30753906 40.92852783 968.36132812 C17.42819727 969.90745744 -6.06363744 970.40458703 -29.61037064 970.44855118 C-31.58676062 970.4530295 -33.56314166 970.46101935 -35.53952026 970.46908569 C-58.95807616 970.54317792 -82.26435519 969.45115813 -105.50390625 966.453125 C-106.15164001 966.37042358 -106.79937378 966.28772217 -107.46673584 966.20251465 C-187.18209447 955.92484613 -266.78930846 925.63526851 -327.69140625 872.203125 C-328.38878906 871.605 -329.08617187 871.006875 -329.8046875 870.390625 C-347.012495 855.56982186 -347.012495 855.56982186 -353.9765625 847.2265625 C-356.01015462 844.82701645 -358.16403717 842.55918949 -360.31640625 840.265625 C-366.95806183 832.97797253 -372.81464336 825.11106158 -378.69140625 817.203125 C-379.14016113 816.60628906 -379.58891602 816.00945313 -380.05126953 815.39453125 C-392.93692143 798.22027263 -403.07263329 779.34811425 -412.69140625 760.203125 C-413.25553223 759.0888916 -413.25553223 759.0888916 -413.83105469 757.95214844 C-436.44850283 712.95085959 -448.6389121 662.41185393 -455.13671875 612.6953125 C-455.29607784 611.48439941 -455.29607784 611.48439941 -455.45865631 610.24902344 C-457.87309558 591.78240965 -459.60605714 573.2665689 -461.22137451 554.71563721 C-461.51954127 551.31091193 -461.82478713 547.90683683 -462.13027573 544.50276184 C-463.00634159 534.73812185 -463.87903478 524.97329509 -464.69140625 515.203125 C-464.79205383 514.00557083 -464.89270142 512.80801666 -464.99639893 511.57417297 C-465.66219575 503.08362692 -465.86694177 494.6360125 -465.89453125 486.12109375 C-465.89735863 485.42490747 -465.900186 484.7287212 -465.90309906 484.01143837 C-465.91796928 480.30994946 -465.92726913 476.60849814 -465.93164062 472.90698242 C-465.9359748 469.92996626 -465.94968496 466.95324821 -465.97265625 463.97631836 C-466.18291328 436.1099206 -464.52327495 408.60495158 -459.94140625 381.078125 C-459.81479614 380.29949097 -459.68818604 379.52085693 -459.55773926 378.71862793 C-450.88243206 325.55333352 -434.6154884 272.94323029 -409.67285156 225.09228516 C-408.64224054 223.10848712 -407.63155281 221.11522295 -406.62109375 219.12109375 C-386.91207982 180.62350499 -358.48256781 143.4869104 -325.69140625 115.203125 C-324.10703101 113.74592369 -322.52373193 112.2875516 -320.94140625 110.828125 C-274.70159806 69.27722092 -217.58434317 41.56142042 -158.69140625 23.203125 C-157.54043457 22.84347656 -156.38946289 22.48382812 -155.20361328 22.11328125 C-105.60596149 6.86894822 -51.77587012 0.12418638 0 0 Z " fill="#000000" transform="translate(465.69140625,-0.203125)"/>
<path d="M0 0 C5.53462733 -0.00585653 11.06922974 -0.01666717 16.60384452 -0.02962726 C49.93541635 -0.10449356 83.23383736 0.10894741 116.55239189 1.10443646 C117.26149931 1.12538191 117.97060674 1.14632737 118.70120227 1.16790754 C189.00977662 3.25314382 261.31307216 8.75635206 325.48989189 40.17865521 C326.7549456 40.79281292 326.7549456 40.79281292 328.04555595 41.41937786 C346.8134174 50.62061881 364.29553295 61.96305141 380.48989189 75.17865521 C381.02034111 75.60759075 381.55079032 76.0365263 382.09731376 76.47845989 C397.51648384 89.01902166 411.84118577 103.04261025 423.48989189 119.17865521 C424.26461845 120.23181927 425.03934501 121.28498333 425.83754814 122.37006146 C466.00949268 178.52809714 475.77015965 261.66883449 465.43129814 328.73334271 C457.28016372 377.39394447 438.00225102 422.28281951 403.99770439 458.48334271 C401.98302859 460.64864847 400.06847348 462.84495672 398.17739189 465.11615521 C373.27132839 493.78500527 332.66643256 523.11980832 296.48989189 535.17865521 C297.90517105 538.16426053 299.53904593 540.84743905 301.40395439 543.57318646 C301.99176689 544.43428021 302.57957939 545.29537396 303.18520439 546.18256146 C303.82200126 547.10939739 304.45879814 548.03623333 305.11489189 548.99115521 C306.11262626 550.44908489 306.11262626 550.44908489 307.13051689 551.93646771 C312.54728899 559.83846297 318.01875906 567.70200127 323.49941337 575.55975872 C329.22367621 583.77452436 334.87369987 592.03830533 340.50161064 600.31928021 C342.77495257 603.66427522 345.05467084 607.00478346 347.34121025 610.34076458 C355.5050453 622.25205307 363.60699804 634.20388662 371.67739189 646.17865521 C372.3121746 647.12007366 372.94695732 648.06149212 373.60097587 649.03143841 C381.60608614 660.90426508 389.58512508 672.79332591 397.51064384 684.71942669 C405.9586876 697.41541755 414.50399373 710.04607469 423.04067314 722.68256146 C429.08934175 731.63841552 435.11792355 740.6066756 441.10523307 749.60367352 C446.50768681 757.71704299 451.96578982 765.79253404 457.42739189 773.86615521 C458.51808114 775.47933365 459.60873805 777.09253395 460.69936454 778.70575482 C470.95272815 793.87025812 481.21657521 809.02766287 491.48989189 824.17865521 C491.89896781 824.7819566 492.30804374 825.38525799 492.72951591 826.00684124 C501.47450109 838.90321124 510.22660483 851.79471306 518.98989189 864.67865521 C521.09266974 867.77088867 523.19536566 870.86317783 525.29799736 873.95551068 C526.80455094 876.17087273 528.31135817 878.38606029 529.81850517 880.60101849 C535.38716108 888.7857717 540.9468853 896.97650555 546.48989189 905.17865521 C546.86837272 905.73865216 547.24685356 906.2986491 547.63680351 906.87561566 C550.17851007 910.63839034 552.71114963 914.40715882 555.23989189 918.17865521 C555.87096855 919.11459515 556.50204521 920.05053509 557.1522454 921.01483685 C561.54235962 927.58383128 565.56424377 934.32355672 569.48989189 941.17865521 C558.55769586 944.42466435 548.21419275 944.63377868 536.90517509 944.64276654 C534.9589084 944.65508019 533.01264935 944.66865522 531.06639946 944.68338543 C525.81666918 944.71930822 520.56702652 944.73696715 515.31719697 944.75062925 C509.80588205 944.76754609 504.29465184 944.79959832 498.78339469 944.82945782 C489.53445935 944.87722462 480.28553541 944.91327167 471.03652275 944.94208294 C460.36008404 944.97546589 449.68384241 945.02652817 439.00752658 945.08723962 C428.71061273 945.14546016 418.4136787 945.19203731 408.11668289 945.23304325 C403.74570653 945.25059959 399.37477505 945.27203837 395.0038327 945.29661518 C389.85490437 945.32497631 384.70603715 945.34305672 379.557042 945.35334927 C377.67291336 945.35870985 375.78879072 945.36750209 373.90469635 945.3800655 C347.52246532 945.54991522 347.52246532 945.54991522 338.48989189 937.17865521 C335.06085762 933.11337434 332.28862354 928.68633842 329.48989189 924.17865521 C328.9291497 923.28033978 328.36840751 922.38202435 327.79067314 921.45648724 C324.05239968 915.45232633 320.35225447 909.42527887 316.66944206 903.38699871 C312.96061721 897.3066501 309.22562565 891.24250156 305.48989189 885.17865521 C304.15644039 883.01206126 302.82310728 880.84539445 301.48989189 878.67865521 C300.82989189 877.60615521 300.16989189 876.53365521 299.48989189 875.42865521 C293.48989188 865.6786552 293.48989188 865.6786552 291.48915946 862.4274345 C290.15830388 860.26481449 288.82741206 858.10221676 287.49648368 855.93964154 C284.12494063 850.46124513 280.7540645 844.98244029 277.38442314 839.50287396 C270.74594307 828.70900943 264.0983208 817.9210603 257.42275321 807.15009075 C253.09760636 800.16832428 248.79200708 793.17463254 244.48989189 786.17865521 C238.03440102 775.68166607 231.55832585 765.19766996 225.06655204 754.7230888 C222.37280634 750.37588878 219.68149272 746.02718344 216.98989189 741.67865521 C215.90656975 739.92864827 214.82323643 738.17864827 213.73989189 736.42865521 C207.23989189 725.92865521 207.23989189 725.92865521 205.61538017 723.30438763 C204.53048645 721.55190461 203.44552536 719.79946329 202.36049736 718.04706341 C199.67548785 713.71039064 196.99159897 709.37303292 194.31020439 705.03412396 C186.7154356 692.74819474 179.07255158 680.49290975 171.41030204 668.24896771 C169.48075962 665.16405473 167.55334283 662.07782402 165.62661064 658.99115521 C158.43518707 647.47170405 151.21742193 635.96971215 143.95473564 624.49506146 C142.4330923 622.08883612 140.91426353 619.68085382 139.39614189 617.27240521 C138.88301445 616.4586845 138.369887 615.6449638 137.84121025 614.80658489 C136.82862012 613.2007066 135.81640284 611.59459314 134.80458915 609.98822552 C132.4719655 606.29111991 130.12518028 602.60512908 127.73598564 598.94428021 C127.3127703 598.29435101 126.88955497 597.64442181 126.45351493 596.97479779 C125.66607472 595.7688468 124.87479066 594.56539367 124.07900321 593.3649345 C121.48989189 589.39908794 121.48989189 589.39908794 121.48989189 587.17865521 C88.48989189 587.17865521 55.48989189 587.17865521 21.48989189 587.17865521 C21.48989189 704.32865521 21.48989189 821.47865521 21.48989189 942.17865521 C-46.49010811 942.17865521 -114.47010811 942.17865521 -184.51010811 942.17865521 C-184.51010811 631.97865521 -184.51010811 321.77865521 -184.51010811 2.17865521 C-177.95029041 1.58230814 -171.62484898 1.02720607 -165.07895577 0.97333294 C-163.90908434 0.95849629 -163.90908434 0.95849629 -162.71557915 0.94335991 C-160.11847264 0.91180704 -157.52135179 0.88683658 -154.92417061 0.86224896 C-153.01805057 0.84132817 -151.11193287 0.82019282 -149.20581734 0.79886395 C-142.84898143 0.73010542 -136.49206136 0.67282394 -130.13510811 0.61615521 C-127.89532121 0.59544618 -125.65553443 0.57472461 -123.41574776 0.5539909 C-82.27793291 0.18019809 -41.13935573 0.04075464 0 0 Z M20.48989189 170.17865521 C20.35304859 200.54066518 20.24685066 230.90264334 20.18349991 261.26489116 C20.17599557 264.84853242 20.16822965 268.43217306 20.16030204 272.01581341 C20.15872818 272.72925879 20.15715432 273.44270417 20.15553276 274.1777691 C20.12941702 285.73340233 20.08210536 297.28885667 20.02697511 308.84438374 C19.97088748 320.69935682 19.93754379 332.55423613 19.92536092 344.40933645 C19.9178632 351.06911708 19.89907153 357.72854152 19.85551155 364.38817936 C19.81486291 370.65332842 19.8022075 376.91790341 19.8112458 383.18317181 C19.80959172 385.4854477 19.79761143 387.78774229 19.77465904 390.08990437 C19.74489433 393.22865287 19.75194924 396.36522159 19.76836479 399.50401837 C19.75088774 400.4193908 19.73341069 401.33476324 19.71540403 402.27787423 C19.72163646 406.86487721 19.72163646 406.86487721 21.7634455 410.8207857 C29.22747145 417.21629056 35.82781487 417.58573135 45.22036064 417.28803021 C46.35572258 417.26441418 47.49108451 417.24079815 48.66085136 417.21646649 C52.33358577 417.13607159 56.00526844 417.03307238 59.67739189 416.92865521 C62.20544204 416.86687178 64.73351872 416.80616409 67.2616204 416.7465263 C73.31089841 416.59994575 79.35948785 416.43471674 85.40810478 416.26324993 C89.34657985 416.15513921 93.28523389 416.06854805 97.22426689 415.98334271 C135.42783509 415.04486953 176.63752486 412.47334904 210.48989189 393.17865521 C211.95748954 392.34914349 211.95748954 392.34914349 213.45473564 391.50287396 C236.06691491 377.90961267 250.46742887 357.73280603 257.23598564 332.36615521 C265.47490326 299.23768344 265.37126477 260.62552964 247.80239189 230.55365521 C227.8927096 199.84231165 194.65027029 184.06425346 159.64370048 176.56928021 C125.6531552 169.77461439 91.16393156 170.01211499 56.65438163 170.10999066 C52.55658847 170.12045293 48.45878847 170.12483588 44.36098564 170.12982708 C36.40393656 170.14036645 28.44691927 170.15729764 20.48989189 170.17865521 Z " fill="#000000" transform="translate(3092.510108113289,9.821344792842865)"/>
<path d="M0 0 C0.87804122 -0.00311998 1.75608243 -0.00623996 2.66073096 -0.00945449 C5.57293277 -0.01736664 8.48492226 -0.01113749 11.39712524 -0.00482178 C13.49733094 -0.00753469 15.59753569 -0.01109731 17.69773865 -0.01544189 C23.3816791 -0.02453348 29.06554668 -0.02103466 34.74948835 -0.01468372 C40.71094421 -0.00960566 46.67239399 -0.01432032 52.6338501 -0.01745605 C62.64561071 -0.021091 72.65734178 -0.01630955 82.6690979 -0.0067749 C94.22410527 0.00410277 105.77904202 0.00058713 117.33404768 -0.01042771 C127.27321423 -0.01952112 137.21235959 -0.02077565 147.15152895 -0.01555037 C153.07961154 -0.0124412 159.007661 -0.01199221 164.93574142 -0.01862335 C170.51229574 -0.02442586 176.08875958 -0.02034694 181.66530418 -0.00883484 C183.70499331 -0.00620349 185.74469013 -0.00692708 187.78437614 -0.01136017 C216.27432484 -0.06754344 216.27432484 -0.06754344 223.9972229 7.01177979 C228.33556223 12.67134064 230.64014097 19.44359991 232.86050415 26.14849854 C233.28990547 27.42010078 233.28990547 27.42010078 233.72798157 28.71739197 C234.34427912 30.54402188 234.95803938 32.37150948 235.56948853 34.19976807 C237.22731154 39.15551091 238.90452903 44.1046975 240.57925415 49.05474854 C240.92324249 50.0730777 241.26723083 51.09140686 241.62164307 52.14059448 C245.08194137 62.37009437 248.64266958 72.56351408 252.2159729 82.75396729 C257.28704572 97.23023156 262.2826453 111.73019819 267.2159729 126.25396729 C272.7195058 142.45261688 278.30478762 158.62072559 283.95474243 174.76885986 C284.58350563 176.56597211 285.21224899 178.36309129 285.8409729 180.16021729 C286.15525238 181.05846725 286.46953186 181.95671722 286.79333496 182.88218689 C289.15504359 189.63722217 291.50122314 196.39754747 293.8409729 203.16021729 C301.2189695 224.48202803 308.65358464 245.78109828 316.21054077 267.04019165 C321.7929728 282.7506493 327.27861655 298.49275155 332.7159729 314.25396729 C338.73126069 331.68851896 344.82152539 349.0939081 350.99868774 366.47174072 C357.30255977 384.21006228 363.51980561 401.97783304 369.7159729 419.75396729 C376.17050088 438.27025881 382.65104641 456.77644121 389.2159729 475.25396729 C395.78090069 493.73149702 402.26102473 512.2378201 408.7159729 530.75396729 C415.21445354 549.39440274 421.73622453 568.02583581 428.3409729 586.62896729 C434.4606321 603.86631771 440.53963465 621.11750859 446.5909729 638.37896729 C447.43659183 640.79083351 448.28221357 643.20269874 449.12783813 645.61456299 C449.5465065 646.80869308 449.96517487 648.00282318 450.39653015 649.23313904 C450.81518845 650.42723892 451.23384674 651.62133881 451.66519165 652.85162354 C452.08421249 654.04681107 452.50323334 655.2419986 452.93495178 656.47340393 C464.97460743 690.81045834 477.07400528 725.12620403 489.23121643 759.42179871 C493.44691815 771.31479348 497.65928229 783.2089686 501.86942196 795.10393333 C503.34936566 799.28495486 504.8303441 803.46560816 506.31206036 807.64600182 C511.19300138 821.41813268 516.05477862 835.1960179 520.84487915 849.00006104 C529.59104984 874.17177588 538.72633709 899.08079319 548.86196899 923.7276001 C550.99033937 928.91136826 553.08556979 934.10828628 555.17300415 939.30865479 C555.52634323 940.18522736 555.87968231 941.06179993 556.24372864 941.9649353 C556.56690567 942.77171722 556.8900827 943.57849915 557.22305298 944.409729 C557.65597404 945.48805496 557.65597404 945.48805496 558.09764099 946.58816528 C558.7159729 948.25396729 558.7159729 948.25396729 558.7159729 949.25396729 C533.45435091 949.27738297 508.19273057 949.29498892 482.93109989 949.30577946 C471.20028888 949.31092405 459.46948464 949.31793156 447.73867798 949.32940674 C437.50776411 949.33940989 427.27685515 949.34583406 417.04593652 949.34805578 C411.63454642 949.34935336 406.22317033 949.35237841 400.81178474 949.35969734 C395.70568014 949.36654663 390.59959517 949.36856635 385.4934864 949.36707497 C383.63167209 949.36734733 381.76985703 949.36929911 379.90804672 949.37317276 C374.17614898 949.38450113 368.44704306 949.35494073 362.7159729 949.25396729 C361.9215997 949.24105172 361.1272265 949.22813615 360.30878139 949.21482921 C357.98634267 949.16584125 355.66701493 949.08689672 353.34584045 948.99687195 C352.66172279 948.98321313 351.97760513 948.96955431 351.27275664 948.95548159 C345.60922832 948.67663801 342.09786356 946.48147614 338.0284729 942.67584229 C328.43435815 930.45476754 325.0169338 912.1232182 320.4659729 897.50396729 C319.77162662 895.28779919 319.07720745 893.07165394 318.38272095 890.85552979 C314.53330637 878.53242622 310.78209773 866.1825187 307.12612915 853.80084229 C306.74234253 852.50221504 306.35851279 851.20360053 305.97463989 849.90499878 C305.68973883 848.94117311 305.68973883 848.94117311 305.39908218 847.95787621 C304.44274816 844.72308122 303.48591214 841.48843532 302.5284729 838.25396729 C302.33912926 837.61405602 302.14978561 836.97414474 301.95470428 836.31484222 C296.87083208 819.14777943 291.48340816 802.21679274 285.00015259 785.52545166 C281.31707627 776.03877988 278.14699111 766.48554719 275.42446899 756.67730713 C272.73953826 747.31718661 269.1711052 737.71457356 260.7159729 732.25396729 C252.43891948 728.73181689 243.70675192 729.11244337 234.87760925 729.13371277 C233.58122573 729.13285834 232.28484221 729.13200392 230.94917434 729.1311236 C227.36208122 729.12889302 223.7750181 729.13288024 220.1879288 729.13790166 C216.3154867 729.14222663 212.44304625 729.14075829 208.57060242 729.13999939 C201.86504784 729.13947545 195.15950301 729.14260867 188.45395088 729.14823723 C178.75888991 729.15636984 169.06383365 729.15896926 159.36876964 729.16022522 C143.63855412 729.16241297 127.9083438 729.16906555 112.1781311 729.17852783 C96.89916001 729.18770911 81.62019033 729.19478645 66.34121704 729.19903564 C65.3991655 729.19929837 64.45711396 729.19956109 63.48651541 729.19983178 C58.76044334 729.20113683 54.03437127 729.20240053 49.30829918 729.20364368 C10.11085346 729.21400766 -29.08658648 729.23161845 -68.2840271 729.25396729 C-68.52095268 730.02433974 -68.75787826 730.7947122 -69.0019834 731.58842927 C-71.26404653 738.94345822 -73.52634692 746.29841412 -75.78889655 753.65329342 C-76.95134288 757.43209059 -78.11370582 761.21091337 -79.27585983 764.98980045 C-85.56813384 785.44963091 -91.88172845 805.90251851 -98.25442505 826.33746338 C-100.59839954 833.85415278 -102.93823607 841.37212968 -105.2762146 848.89068604 C-105.63769278 850.05312899 -105.63769278 850.05312899 -106.00647354 851.23905563 C-110.04246198 864.22227576 -114.0480493 877.21474138 -118.0418396 890.21099854 C-118.32070511 891.11831411 -118.59957062 892.02562969 -118.8868866 892.96043968 C-121.61339416 901.83198825 -124.33781042 910.704173 -127.05692482 919.57799053 C-128.05154764 922.82292793 -129.04748858 926.06745982 -130.04369736 929.31191063 C-130.50762793 930.82410957 -130.97090785 932.3365083 -131.43350601 933.84911537 C-132.06489277 935.91358688 -132.69838147 937.977402 -133.33236694 940.04107666 C-133.86451309 941.77810852 -133.86451309 941.77810852 -134.40740967 943.55023193 C-135.2840271 946.25396729 -135.2840271 946.25396729 -136.2840271 948.25396729 C-208.5540271 948.25396729 -280.8240271 948.25396729 -355.2840271 948.25396729 C-353.03397052 938.12871266 -353.03397052 938.12871266 -351.77775574 934.3609314 C-351.35178352 933.07249329 -351.35178352 933.07249329 -350.91720581 931.75802612 C-350.61133545 930.84805878 -350.30546509 929.93809143 -349.99032593 929.00054932 C-349.66299973 928.01492004 -349.33567352 927.02929077 -348.99842834 926.01379395 C-347.91706788 922.76162832 -346.82921533 919.51167705 -345.74105835 916.26177979 C-344.97241523 913.95637069 -344.20408541 911.65085712 -343.43605042 909.34524536 C-341.81895352 904.4940444 -340.19876727 899.64388982 -338.57626343 894.79449463 C-336.54321354 888.71759846 -334.51658485 882.63858681 -332.49212742 876.55882359 C-323.43780654 849.37440654 -314.22744578 822.2526747 -304.72737503 795.22080517 C-302.10228807 787.74796579 -299.51309492 780.26314986 -296.93637085 772.77349854 C-296.54135376 771.62577469 -296.14633667 770.47805084 -295.73934937 769.29554749 C-294.96130724 767.034059 -294.18350311 764.77248862 -293.40594482 762.51083374 C-285.9322325 740.77677531 -278.39591591 719.06581423 -270.78292847 697.38020325 C-267.88952541 689.13580466 -265.01379448 680.8852639 -262.1383667 672.63458252 C-255.82618812 654.52354854 -249.49607698 636.41881224 -243.1590271 618.31646729 C-242.93779552 617.68449936 -242.71656395 617.05253143 -242.48862839 616.40141296 C-240.45102313 610.58088586 -238.41328168 604.76040645 -236.37541199 598.93997192 C-232.38104731 587.53150664 -228.38779387 576.12265266 -224.39486694 564.71368408 C-222.65319169 559.73721896 -220.9113185 554.76082319 -219.16928101 549.78448486 C-214.96645485 537.77822242 -210.76523264 525.77140511 -206.5683136 513.76307678 C-198.0122889 489.28349528 -189.43751018 464.81108002 -180.76144409 440.37371826 C-174.94741103 423.99488313 -169.19402246 407.59516989 -163.46001816 391.18819046 C-154.13909531 364.51809659 -144.74396644 337.87507473 -135.2840271 311.25396729 C-134.60888738 309.35358004 -133.93375718 307.45318941 -133.25863647 305.55279541 C-129.58845209 295.22255805 -125.91524933 284.89339675 -122.24031067 274.56484985 C-119.96800176 268.17798032 -117.69775838 261.79037947 -115.42855835 255.40240479 C-114.13048745 251.74872122 -112.8322957 248.09508061 -111.5340271 244.44146729 C-111.20938477 243.52780396 -110.88474243 242.61414063 -110.55026245 241.67279053 C-106.54467555 230.40143873 -102.52845156 219.13395211 -98.49887085 207.87115479 C-89.34005376 182.26923157 -80.23349546 156.65034784 -71.2227478 130.99591064 C-70.43980673 128.76681907 -69.65684786 126.53773374 -68.87387085 124.30865479 C-68.29809044 122.66942802 -68.29809044 122.66942802 -67.7106781 120.99708557 C-63.02668177 107.66756038 -58.31354214 94.3483276 -53.58309937 81.03521729 C-50.297052 71.78369508 -47.02476835 62.52799534 -43.79821777 53.25552368 C-42.25437804 48.82105809 -40.70344499 44.38908785 -39.15200806 39.95727539 C-38.41535417 37.84656917 -37.68215415 35.73465388 -36.95266724 33.62145996 C-35.94172974 30.69371962 -34.91882792 27.77040899 -33.8934021 24.84771729 C-33.60137909 23.99160858 -33.30935608 23.13549988 -33.00848389 22.25344849 C-30.18414592 14.27426329 -26.59276879 6.94259403 -19.2840271 2.25396729 C-12.93053881 0.40401471 -6.57912125 -0.03672536 0 0 Z M101.7159729 183.25396729 C89.6679299 202.60773848 83.30504062 224.14537523 76.6305809 245.78979874 C75.4894184 249.48431257 74.33889896 253.17591411 73.18984985 256.86798096 C70.57942289 265.2628676 67.98390349 273.66232165 65.39209747 282.06297302 C64.52860424 284.86113891 63.66419742 287.65902213 62.79977036 290.45689964 C58.2739929 305.10641564 53.76719232 319.76170131 49.271698 334.42053604 C46.1578611 344.57300689 43.02906674 354.72076828 39.89060402 364.86565208 C28.63181409 401.26250657 17.49256253 437.69556133 6.49105835 474.17105103 C5.15368772 478.60427818 3.81212601 483.03620143 2.46676636 487.4670105 C0.87425673 492.71294773 -0.70878354 497.96165614 -2.28503799 503.21249962 C-2.86538107 505.14055073 -3.44878358 507.06768437 -4.03567123 508.99375343 C-10.70845623 529.75857909 -10.70845623 529.75857909 -13.2840271 551.25396729 C62.6159729 551.25396729 138.5159729 551.25396729 216.7159729 551.25396729 C214.38382764 541.80706677 214.38382764 541.80706677 211.70498657 532.50079346 C211.33487961 531.30653244 210.96477264 530.11227142 210.58345032 528.88182068 C210.1836682 527.60350888 209.78383018 526.32521455 209.38394165 525.04693604 C208.95544807 523.66843213 208.52725978 522.2898333 208.09934998 520.91114807 C207.18383777 517.96362421 206.26628756 515.01674592 205.34707642 512.07037354 C203.87363917 507.34744065 202.40482154 502.62307863 200.93667603 497.89849854 C199.1421104 492.12445849 197.34651397 486.35074112 195.5495472 480.57744789 C192.40628806 470.47839773 189.27115448 460.37685119 186.14175415 450.27349854 C185.91709158 449.54818121 185.69242901 448.82286388 185.46095848 448.07556725 C184.33112544 444.42776714 183.20144663 440.77991929 182.07183838 437.13204956 C180.01699718 430.49657008 177.96077127 423.86151964 175.90466881 417.22643089 C174.75838193 413.52729337 173.61218174 409.82812899 172.4659729 406.12896729 C172.00763998 404.64980049 171.54930665 403.17063382 171.0909729 401.69146729 C146.34097288 321.81646721 146.34097288 321.81646721 145.65345383 319.59765053 C145.19518799 318.11870517 144.73691824 316.63976103 144.27864456 315.1608181 C143.1317463 311.45952537 141.98491649 307.75821145 140.83822632 304.05685425 C138.78851319 297.44089563 136.7383643 290.82507412 134.68557358 284.21006966 C133.55473607 280.56595522 132.42431075 276.92171301 131.2940979 273.27740479 C131.06965248 272.55372082 130.84520706 271.83003685 130.61396027 271.08442307 C127.41794301 260.77658218 124.2417817 250.46277086 121.07791138 240.14501953 C119.28641034 234.30301899 117.48995091 228.46254665 115.69235992 222.62241745 C114.22071615 217.83957142 112.75582416 213.05472471 111.29584885 208.26830482 C110.39739994 205.3285011 109.49261524 202.39067688 108.58600616 199.45338058 C108.16536829 198.08583671 107.7474329 196.71745839 107.3323288 195.34822464 C106.76642358 193.48278076 106.19022569 191.62046835 105.61343384 189.75836182 C105.29340393 188.7134256 104.97337402 187.66848938 104.64364624 186.59188843 C103.95347211 184.09503806 103.95347211 184.09503806 101.7159729 183.25396729 Z " fill="#000000" transform="translate(2237.2840270996094,4.74603271484375)"/>
<path d="M0 0 C235.29 0 470.58 0 713 0 C713 55.11 713 110.22 713 167 C630.5 167 548 167 463 167 C463 422.09 463 677.18 463 940 C395.02 940 327.04 940 257 940 C257 684.91 257 429.82 257 167 C172.19 167 87.38 167 0 167 C0 111.89 0 56.78 0 0 Z " fill="#000000" transform="translate(4245,13)"/>
<path d="M0 0 C12.60901192 11.92948433 23.85141283 34.56385096 24.42536926 51.90585327 C24.54811212 60.95940454 23.03679848 69.42156493 20.875 78.1875 C20.51228021 79.70731975 20.15007402 81.22726214 19.78833008 82.74731445 C10.13566576 122.8674833 -1.94823867 162.35206014 -13.80230713 201.86199951 C-14.79268492 205.16312732 -15.78209774 208.46454203 -16.77099609 211.76611328 C-19.01149874 219.245709 -21.25300623 226.72498276 -23.50500488 234.2011261 C-24.37871684 237.10512095 -25.24846851 240.01029696 -26.11816406 242.91549683 C-26.66080949 244.72375332 -27.20547808 246.53140315 -27.75146484 248.33865356 C-32.77686417 264.98172151 -37.4356484 281.70069724 -41.87765503 298.50790405 C-43.93022709 306.27173261 -46.00232284 314.03037282 -48.07421875 321.7890625 C-48.29991861 322.63449553 -48.52561848 323.47992855 -48.75815773 324.35098076 C-54.71517518 346.65487624 -60.79487969 368.92532072 -66.87609482 391.19561005 C-67.81429989 394.63159172 -68.75223469 398.06764707 -69.69009399 401.50372314 C-75.18987019 421.65279214 -80.69418167 441.80062213 -86.2010498 461.94775391 C-86.39724736 462.66555253 -86.59344491 463.38335116 -86.79558784 464.12290126 C-88.56681113 470.6029968 -88.56681113 470.6029968 -89.20683134 472.94452131 C-92.6706295 485.61706753 -96.13238376 498.29017119 -99.59279346 510.96364307 C-101.56841991 518.19887899 -103.54508059 525.4338292 -105.52438354 532.6680603 C-117.5143164 576.46951108 -117.5143164 576.46951108 -128.875 620.4375 C-137.50303709 620.50731832 -146.0827888 620.32776333 -154.69921875 619.88671875 C-155.88433548 619.82724564 -157.06945221 619.76777252 -158.29048157 619.70649719 C-160.78725359 619.57967498 -163.28393228 619.45100302 -165.78051758 619.32055664 C-169.50760806 619.12783832 -173.23516177 618.94746257 -176.96289062 618.76757812 C-188.99032564 618.1609432 -200.95845315 617.34919372 -212.92578125 615.984375 C-214.45896248 615.81037422 -214.45896248 615.81037422 -216.02311707 615.63285828 C-254.60601919 610.95758847 -254.60601919 610.95758847 -263.53515625 599.5703125 C-269.96466518 589.335584 -266.55972153 575.16108577 -265.25 563.875 C-265.07333754 562.31090755 -264.89699653 560.74677877 -264.72094727 559.18261719 C-263.67528623 549.97359455 -262.54875237 540.77605005 -261.37890625 531.58203125 C-256.80541805 495.57113352 -254.05756712 459.74860691 -252.25 423.5 C-252.18728912 422.2586026 -252.12457825 421.0172052 -252.05996704 419.7381897 C-249.89714108 376.34912054 -249.68942724 332.94920653 -249.57791827 289.51651921 C-249.55667558 281.31037607 -249.53031527 273.10425135 -249.50375474 264.89812399 C-249.45654939 250.27380736 -249.41316394 235.64948215 -249.37231445 221.02514648 C-249.33271576 206.85163715 -249.29123481 192.6781353 -249.24731445 178.50463867 C-249.24459018 177.62528565 -249.24186591 176.74593263 -249.23905908 175.83993255 C-249.22537563 171.42677524 -249.21165615 167.01361804 -249.19791877 162.60046089 C-249.08469682 126.212823 -248.97773016 89.82516895 -248.875 53.4375 C-240.87868472 51.27321358 -232.89574939 49.11521088 -224.79907227 47.35375977 C-224.00795075 47.17873397 -223.21682924 47.00370817 -222.40173435 46.82337856 C-219.83226844 46.25559043 -217.26184294 45.69228148 -214.69140625 45.12890625 C-212.84626647 44.72178672 -211.00120614 44.314307 -209.15621948 43.90649414 C-205.26128652 43.04594708 -201.36600251 42.18701646 -197.47042847 41.32937622 C-187.32428018 39.09483 -177.18155487 36.8448227 -167.0390625 34.59375 C-166.03580114 34.37112551 -165.03253979 34.14850101 -163.99887657 33.91913033 C-147.57766232 30.27390275 -131.16578897 26.59115991 -114.77731323 22.80123901 C-112.50292868 22.27528696 -110.22813976 21.75107989 -107.95291138 21.22879028 C-91.09049508 17.35318568 -74.53183696 13.38199827 -58.625 6.4375 C-56.5668598 5.56143371 -54.5082698 4.68642334 -52.44921875 3.8125 C-51.48677246 3.40128906 -50.52432617 2.99007813 -49.53271484 2.56640625 C-33.95677346 -4.04972024 -15.27051362 -11.37560529 0 0 Z " fill="#000000" transform="translate(4144.875,14.5625)"/>
<path d="M0 0 C1.46033589 1.28774038 2.90898345 2.58870198 4.35668945 3.890625 C5.35249023 4.77814453 5.35249023 4.77814453 6.3684082 5.68359375 C25.57564217 23.81629714 38.5542554 50.99571481 39.63793945 77.37890625 C39.91487133 88.84255378 39.30181985 99.76457682 36.35668945 110.890625 C35.97673828 112.33888672 35.97673828 112.33888672 35.58911133 113.81640625 C29.60581428 136.17011109 22.11645485 158.07082298 14.7355957 179.9921875 C14.42446838 180.91798615 14.11334106 181.84378479 13.79278564 182.79763794 C6.34827362 204.80831609 -12.9888455 217.99301895 -33.19970703 228.00317383 C-52.96089525 237.33712211 -75.66602009 242.9519428 -97.5612793 243.09375 C-98.29223312 243.10080963 -99.02318695 243.10786926 -99.77629089 243.11514282 C-115.5716714 243.23293058 -131.14346885 243.328115 -146.64331055 239.890625 C-147.52019531 239.69726562 -148.39708008 239.50390625 -149.30053711 239.3046875 C-182.87630205 231.59760437 -212.59165003 215.41970462 -231.52246094 185.86230469 C-239.33148146 173.19812862 -246.16508915 159.41017712 -249.64331055 144.890625 C-249.97588867 143.65699219 -249.97588867 143.65699219 -250.31518555 142.3984375 C-259.17375529 103.97139849 -244.28313731 50.9674358 -224.26831055 18.015625 C-204.73163777 -10.69669859 -175.70173312 -24.00307053 -142.39526367 -30.59375 C-91.09604489 -40.20552698 -40.64927449 -35.17179834 0 0 Z " fill="#000000" transform="translate(4017.643310546875,726.109375)"/>
</svg>
